<?xml version="1.0" encoding="UTF-8"?>
<svg enable-background="new 0 0 247.875 185.791" viewBox="0 0 247.875 185.791" xmlns="http://www.w3.org/2000/svg">
 <path d="m0 0h247.88v185.79h-247.88z" fill="#009f0d"/>
 <path d="m112.565,79.146c-37.752-37.257-89.465-14.98-89.465-14.98l-.857,91.594c-5.333,1.264-9.047,6.294-8.495,11.898 .603,6.11 6.046,10.575 12.157,9.973 4.919-.485 8.767-4.109 9.767-8.69l91.197-.118c0-.001 21.368-54.471-14.304-89.677zm-22.46,75.034c0,0-2.981.484-5.832,3.13-2.759,2.562-3.432,6.364-3.432,6.364l-45.224.324c-.98-4.146-4.239-7.308-8.279-8.251l.908-46.187c0,0 4.763-.957 6.481-3.23s2.814-5.944 2.814-5.944l44.846-.052c0,0-.374,2.788 2.51,5.743 2.879,2.954 5.302,2.877 5.302,2.877l-.094,45.226z" fill="#ffc93f"/>
 <path d="m31.433 166.14 215.78-0.25" fill="none" stroke="#fff" stroke-width=".5"/>
 <path d="m25.529.52 .054,159.527" fill="none" stroke="#fff" stroke-width=".5"/>
 <path d="m64.078 133.68a6.929 6.929 0 1 0 -13.858 0 6.929 6.929 0 1 0 13.858 0" fill="#ffc93f"/>
 <path d="m90.872 97.182h3.972v3.972h-3.972z" fill="#fff"/>
 <path d="m90.872 161.93h3.972v3.972h-3.972z" fill="#fff"/>
 <path d="m25.927 96.982h3.972v3.972h-3.972z" fill="#fff"/>
 <path d="m29.218 165.26-2.833-2e-3 0.025-2.807 1.67-1.67 2.809 2.808z" fill="#fff"/>
 <path transform="matrix(.7071 .7071 -.7071 .7071 121.42 30.95)" d="m21.671 159.17h3.353v5.731h-3.353z" fill="none" stroke="#fff" stroke-width=".4756"/>
 <path transform="matrix(.7071 .7071 -.7071 .7071 127.55 28.532)" d="m27.583 165.36h3.498v5.731h-3.498z" fill="none" stroke="#fff" stroke-width=".4858"/>
 <path transform="matrix(.7072 .707 -.707 .7072 125.46 32.24)" d="m21.225 164.4h5.158v6.375h-5.158z" fill="none" stroke="#fff" stroke-width=".6221"/>
 <path d="m94.366 177.43v-6.674h-15.667l0.124 6.458" fill="none" stroke="#fff" stroke-width=".5"/>
 <path d="m13.543,113.273h6.674v-15.666l-6.458.123" fill="none" stroke="#fff" stroke-width=".5"/>
</svg>
